<svg xmlns="http://www.w3.org/2000/svg" viewBox="0 0 32 32" fill="none">
  <defs>
    <linearGradient id="sky" x1="0" y1="0" x2="0" y2="1">
      <stop offset="0%" stop-color="#38bdf8"/>
      <stop offset="100%" stop-color="#0ea5e9"/>
    </linearGradient>
  </defs>
  <rect width="32" height="32" rx="6" fill="url(#sky)"/>
  <circle cx="22" cy="12" r="5" fill="#fde047"/>
  <path fill="#f8fafc" fill-opacity="0.95" d="M8 20c0-3.3 2.7-6 6-6 2.5 0 4.6 1.5 5.6 3.7.4-.1.8-.2 1.2-.2 2.2 0 4 1.8 4 4s-1.8 4-4 4H10c-1.1 0-2-.9-2-2v-.5z"/>
  <path fill="#38bdf8" d="M12 24c0-1.1.9-2 2-2h6c1.1 0 2 .9 2 2v.2c0 .4-.3.8-.8.8h-8.4c-.4 0-.8-.4-.8-.8V24z"/>
</svg>
